<?xml version="1.0" encoding="UTF-8" standalone="no"?>
<svg id="svg2" height="128" version="1.1" viewBox="0 0 128 128" width="128"
     xmlns="http://www.w3.org/2000/svg" xmlns:svg="http://www.w3.org/2000/svg">
 <path id="path4317-5-6" fill="#000" fill-opacity="1" stroke="#fff" stroke-opacity="1"
   stroke-dasharray="none" stroke-miterlimit="4" stroke-width="2.5"
   d="m 37.1673,31.5512
      l 8.1122,9.9842
      H 29.0551
      L 25.311,56.5118
      H 15.3268
      L 19.0709,41.5354
      H 9.0866
      L 1.5984,71.4882
      h 20.0
      l -2.4961,9.9842
      H 36.5433
      L 23.439,96.4488
      H 38.1034
      L 50.2717,81.4724
      H 77.7283
      L 89.8966,96.4488
      H 104.561
      L 91.4567,81.4724
      h 17.4724
      l -2.4961,-9.9842
      h 20.0
      l -7.4882,-29.9527
      h -9.9842
      l 3.7441,14.9764
      h -9.9842
      L 98.9449,41.5354
      H 82.7205
      l 8.1122,-9.9842
      H 80.2244
      l -8.7362,9.9842
      H 56.5118
      l -8.7362,-9.9842 z
      m 1.248,19.9685
      h 9.9842
      v 9.9847
      h -9.9842 z
      m 41.212,0
      h 9.9842
      v 9.9847
      l -9.9842,-0.0004 z" />
</svg>
