<svg xmlns="http://www.w3.org/2000/svg" xmlns:svg="http://www.w3.org/2000/svg" id="svg2" width="128.19" height="128.19" version="1.1"><metadata id="metadata7"/><g id="layer1" transform="translate(-317.03125,-547.56)"><path style="fill:#000;fill-opacity:1;stroke:#fff;stroke-width:2.5;stroke-miterlimit:4;stroke-opacity:1;stroke-dasharray:none" id="path4317-5-6" d="m 354.25,577.50561 8.125,10 -16.25,0 -3.75,15 -10,0 3.75,-15 -10,0 -7.5,30 10,0 2.5,0 7.5,0 -2.5,10 17.5,0 -13.125,15 14.6875,0 12.1875,-15 27.5,0 12.1875,15 14.6875,0 -13.125,-15 17.5,0 -2.5,-10 7.5,0 2.5,0 10,0 -7.5,-30 -10,0 3.75,15 -10,0 -3.75,-15 -16.25,0 8.125,-10 -10.625,0 -8.75,10 -15,0 -8.75,-10 z m 1.25,20 10,0 0,10.00045 -10,0 z m 41.277,0 10,0 0,10.00045 -10,-4.5e-4 z"/></g></svg>