<svg xmlns:svg="http://www.w3.org/2000/svg" xmlns="http://www.w3.org/2000/svg" width="150" height="150" version="1.1"><style>.s0{fill:#fff;}</style><g transform="translate(0,-50)"><g transform="translate(-20,-5)"><path d="m30 90 20 0 0-10 30 0 0 10 10 0 0 10 10 0 0-10 10 0 0-10 30 0 0 10 20 0 0 60-10 0 0 30-30 0 0-10-10 0 0-10-30 0 0 10-10 0 0 10-30 0 0-30-10 0z" style="fill:#fff;stroke-linecap:round;stroke-linejoin:bevel;stroke-width:1.7;stroke:#000"/><path d="m40 100 10 0 0 20 10 0 0-10 10 0 0-10-10 0 0-10 10 0 0 10 10 0 0 10 30 0 0-10 10 0 0-10 10 0 0 10-10 0 0 10 10 0 0 10 10 0 0-20 10 0 0 40-10 0 0 10-10 0 0 10 10 0 0 10-10 0 0-10-10 0 0-10-50 0 0 10-10 0 0 10-10 0 0-10 10 0 0-10-10 0 0-10-10 0z" fill="#000"/><rect y="120" x="70" height="10" width="10" fill="#fff"/><rect width="10" height="10" x="110" y="120" fill="#fff"/></g></g></svg>