<?xml version="1.0" encoding="UTF-8"?>
<svg id="Layer_1" xmlns="http://www.w3.org/2000/svg" version="1.1" viewBox="0 0 48 48">
  <!-- Generator: Adobe Illustrator 29.0.1, SVG Export Plug-In . SVG Version: 2.1.0 Build 192)  -->
  <defs>
    <style>
      .st0 {
        fill: #2f2f2f;
      }
    </style>
  </defs>
  <path id="Invader" class="st0" d="M15.2214499,30.6589508l1.8361292-2.0981903-2.6117897-.00597c-1.4364796-.0032806-2.6114798-.0085793-2.6111097-.0117493.0002804-.00317.1577702-.6325893.3497696-1.3986893l.3491001-1.3929195h-5.60711l.9638901-3.8554993.9638901-3.8554993h2.0806599l-.5253801,2.0981903c-.2889605,1.1540108-.5256901,2.1008396-.5260696,2.1040707-.0002804.0032196.7925396.0058899,1.7620497.0058899h1.7627401l.0164003-.0646496c.0090303-.0355606.2452698-.9797401.5249901-2.0981903l.5085897-2.0335407,5.0112696-.0235004-1.0804691-1.32827c-.5942593-.7305498-1.1016502-1.3573599-1.1275406-1.3929195l-.0470695-.0646496h2.0714703l1.22439,1.3987999,1.22439,1.3987999h4.5306797l1.22439-1.3987999,1.22439-1.3987999h2.0714703l-.0470695.0646496c-.0258808.0355597-.5332794.6623697-1.1275406,1.3929195l-1.0804691,1.32827,5.0112686.0235004.5085907,2.0335407c.2797203,1.1184502.5159683,2.0626392.5249901,2.0981903l.0163994.0646496h1.7627411c.9695091,0,1.7624283-.0025196,1.7620506-.0058899-.0002785-.0032196-.2371101-.9500599-.5260696-2.1040707l-.5253792-2.0981903h2.0806618l.9638901,3.8554993.9638901,3.8554993h-5.6071091l.3490982,1.3929195c.1920013.7660999.3493996,1.3955193.3497696,1.3986893.0002785.00317-1.1746292.0084705-2.6111107.0117493l-2.6117802.00597,1.8361301,2.0981903,1.8361397,2.0981903-3.185791-.0028-1.7044106-2.1022892-1.7044201-2.1022892h-8.0401287l-1.7044201,2.1022892-1.7044106,2.1022892-3.1857901.0028,1.8361588-2.0981903ZM19.9799404,21.8959103v-1.7514305h-3.5263691l-.0060806,1.7279205c-.0033398.9503593-.0011196,1.7412205.0051899,1.7574596.0089397.0234108.37533.0282898,1.7692699.0235004l1.7579899-.0060291v-1.751421ZM31.5464401,20.1444798l-3.5146198-.0120602v3.5269699l3.5146198-.0120602v-3.5028496Z"/>
</svg>