<svg xmlns="http://www.w3.org/2000/svg" xmlns:svg="http://www.w3.org/2000/svg" id="svg2" width="128.19" height="128.19" version="1.1"><metadata id="metadata7"/><g id="layer1" transform="translate(-317.03125,-547.56)"><g id="g887" transform="translate(413.35889,-118.18813)"><rect style="fill:#000;fill-opacity:1;stroke:#987884;stroke-width:0;stroke-miterlimit:4;stroke-dasharray:none;stroke-opacity:.2713568" id="rect4542-1" width="260" height="145" x="-10.555" y="513.045"/><g id="g852" transform="translate(-17.5,6.9142146)"><path id="path30-6" d="m 101.34192,583.68312 7.44689,-8.50973 -10.592739,-0.0242 c -5.826,-0.0133 -10.591502,-0.0348 -10.58999,-0.0476 0.0011,-0.0129 0.639876,-2.56562 1.418594,-5.67274 l 1.415864,-5.64932 H 79.070024 67.69952 l 3.909283,-15.63693 3.909272,-15.63692 h 4.219334 4.219322 l -2.130819,8.50972 c -1.171944,4.68036 -2.132059,8.52047 -2.133594,8.53357 -0.0011,0.0131 3.214355,0.0239 7.146429,0.0239 h 7.149215 l 0.06653,-0.26221 c 0.03662,-0.14421 0.994754,-3.97359 2.129238,-8.50973 l 2.062699,-8.24752 10.162221,-0.0476 10.16221,-0.0476 -4.3821,-5.3871 c -2.41017,-2.96292 -4.46802,-5.50512 -4.57302,-5.64931 l -0.1909,-0.26222 h 4.20067 4.20068 l 4.96581,5.67316 4.96582,5.67315 h 9.18764 9.18764 l 4.96583,-5.67315 4.96581,-5.67316 h 4.20067 4.20068 l -0.19089,0.26222 c -0.10497,0.14419 -2.16288,2.68639 -4.57303,5.64931 l -4.38209,5.3871 10.16221,0.0476 10.16222,0.0476 2.0627,8.24752 c 1.13448,4.53614 2.09264,8.36552 2.12924,8.50973 l 0.0665,0.26221 h 7.14922 c 3.93208,0 7.14796,-0.0102 7.14643,-0.0239 -0.001,-0.0131 -0.96166,-3.85321 -2.1336,-8.53357 l -2.1308,-8.50972 h 4.21931 4.21932 l 3.90928,15.63692 3.90929,15.63693 h -11.37052 -11.3705 l 1.41586,5.64932 c 0.77872,3.10712 1.41709,5.65985 1.41859,5.67274 0.001,0.0128 -4.76399,0.0343 -10.59,0.0476 l -10.59273,0.0242 7.4469,8.50973 7.4469,8.50973 -6.46038,-0.006 -6.46039,-0.006 -6.91266,-8.52635 -6.91267,-8.52632 h -16.30434 -16.30435 l -6.91268,8.52632 -6.91266,8.52635 -6.46038,0.006 -6.460384,0.006 z m 19.2992,-35.54063 v -7.10336 h -7.15103 -7.15104 l -0.0247,7.00801 c -0.0135,3.85441 -0.004,7.06192 0.021,7.1278 0.0363,0.095 1.52225,0.11474 7.17569,0.0953 l 7.12996,-0.0244 z m 46.91078,0 v -7.10336 l -7.1272,-0.0245 -7.1272,-0.0245 v 7.15224 7.15225 l 7.1272,-0.0245 7.1272,-0.0245 z" style="fill:#eee;fill-opacity:.87843137;stroke:#d90000;stroke-width:0;stroke-miterlimit:4;stroke-dasharray:none;stroke-opacity:1"/><g id="g843" transform="translate(12.414149)"><text style="font-style:normal;font-variant:normal;font-weight:400;font-stretch:normal;font-size:61.06628418px;line-height:1.25;font-family:Plaza;-inkscape-font-specification:Plaza;letter-spacing:0;word-spacing:0;fill:#eee;fill-opacity:.87843137;stroke:none;stroke-width:1.5266571" id="text4540-9" x="20.666" y="634.674" xml:space="preserve"><tspan id="tspan4538-9" x="20.666" y="634.674" style="font-size:48.85302734px;fill:#eee;fill-opacity:.87843137;stroke-width:1.5266571">retroarcH</tspan></text><text style="font-style:normal;font-variant:normal;font-weight:400;font-stretch:normal;font-size:15.20382977px;line-height:1.25;font-family:Plaza;-inkscape-font-specification:Plaza;letter-spacing:0;word-spacing:0;fill:#eee;fill-opacity:.87843137;stroke:none;stroke-width:.38009575" id="text4540-9-2" x="598.011" y="-218.101" transform="rotate(90)" xml:space="preserve"><tspan id="tspan4538-9-2" x="598.011" y="-218.101" style="font-size:12.163064px;fill:#eee;fill-opacity:.87843137;stroke-width:.38009575">AARCH<tspan style="fill:#e00;fill-opacity:.87843137;stroke-width:.38009575" id="tspan4623">64</tspan></tspan></text></g></g></g><g id="g876" transform="translate(-119.45038,111.81187)"><rect style="fill:#000;fill-opacity:1;stroke:#987884;stroke-width:0;stroke-miterlimit:4;stroke-dasharray:none;stroke-opacity:.2713568" id="rect4542-1-3" width="260" height="145" x="-10.555" y="283.045"/><path style="fill:#eee;fill-opacity:.87843137;stroke:#d90000;stroke-width:0;stroke-miterlimit:4;stroke-dasharray:none;stroke-opacity:1" id="path30-6-5" d="m 83.841921,360.59733 7.44689,-8.50973 -10.592739,-0.0242 c -5.826,-0.0133 -10.591502,-0.0348 -10.58999,-0.0476 0.0011,-0.0129 0.639876,-2.56562 1.418594,-5.67274 l 1.415864,-5.64932 H 61.570025 50.199521 l 3.909283,-15.63693 3.909272,-15.63692 h 4.219334 4.219322 l -2.130819,8.50972 c -1.171944,4.68036 -2.132059,8.52047 -2.133594,8.53357 -0.0011,0.0131 3.214355,0.0239 7.146429,0.0239 h 7.149215 l 0.06653,-0.26221 c 0.03662,-0.14421 0.994754,-3.97359 2.129238,-8.50973 l 2.062699,-8.24752 10.162221,-0.0476 10.162209,-0.0476 -4.382099,-5.3871 c -2.41017,-2.96292 -4.46802,-5.50512 -4.57302,-5.64931 l -0.1909,-0.26222 h 4.20067 4.200679 l 4.96581,5.67316 4.96582,5.67315 h 9.18764 9.18764 l 4.96583,-5.67315 4.96581,-5.67316 h 4.20067 4.20068 l -0.19089,0.26222 c -0.10497,0.14419 -2.16288,2.68639 -4.57303,5.64931 l -4.38209,5.3871 10.16221,0.0476 10.16222,0.0476 2.0627,8.24752 c 1.13448,4.53614 2.09264,8.36552 2.12924,8.50973 l 0.0665,0.26221 h 7.14922 c 3.93208,0 7.14796,-0.0102 7.14643,-0.0239 -0.001,-0.0131 -0.96166,-3.85321 -2.1336,-8.53357 l -2.1308,-8.50972 h 4.21931 4.21932 l 3.90928,15.63692 3.90929,15.63693 h -11.37052 -11.3705 l 1.41586,5.64932 c 0.77872,3.10712 1.41709,5.65985 1.41859,5.67274 0.001,0.0128 -4.76399,0.0343 -10.59,0.0476 l -10.59273,0.0242 7.4469,8.50973 7.4469,8.50973 -6.46038,-0.006 -6.46039,-0.006 -6.91266,-8.52635 -6.91267,-8.52632 h -16.30434 -16.30435 l -6.912679,8.52632 -6.91266,8.52635 -6.46038,0.006 -6.460384,0.006 z M 103.14112,325.0567 v -7.10336 h -7.151029 -7.15104 l -0.0247,7.00801 c -0.0135,3.85441 -0.004,7.06192 0.021,7.1278 0.0363,0.095 1.52225,0.11474 7.17569,0.0953 l 7.129959,-0.0244 z m 46.91078,0 v -7.10336 l -7.1272,-0.0245 -7.1272,-0.0245 v 7.15224 7.15225 l 7.1272,-0.0245 7.1272,-0.0245 z"/><text style="font-style:normal;font-variant:normal;font-weight:400;font-stretch:normal;font-size:61.06628418px;line-height:1.25;font-family:Plaza;-inkscape-font-specification:Plaza;letter-spacing:0;word-spacing:0;fill:#eee;fill-opacity:.87843137;stroke:none;stroke-width:1.5266571" id="text4540-9-22" x="21.435" y="411.588" xml:space="preserve"><tspan id="tspan4538-9-1" x="21.435" y="411.588" style="font-size:48.85302734px;fill:#eee;fill-opacity:.87843137;stroke-width:1.5266571">retroarcH</tspan></text></g><g id="g894" transform="translate(-150.85437,50.000011)"><rect style="fill:#000;fill-opacity:1;stroke:#987884;stroke-width:0;stroke-miterlimit:4;stroke-dasharray:none;stroke-opacity:.2713568" id="rect4542-1-9" width="260" height="145" x="287.254" y="344.856"/><path style="fill:#eee;fill-opacity:.87843137;stroke:#d90000;stroke-width:0;stroke-miterlimit:4;stroke-dasharray:none;stroke-opacity:1" id="path30-6-8" d="m 381.65055,422.4092 7.44689,-8.50973 -10.59274,-0.0242 c -5.826,-0.0133 -10.5915,-0.0348 -10.58999,-0.0476 10e-4,-0.0129 0.63988,-2.56562 1.4186,-5.67274 l 1.41586,-5.64932 h -11.37051 -11.37051 l 3.90928,-15.63693 3.90928,-15.63692 h 4.21933 4.21932 l -2.13082,8.50972 c -1.17194,4.68036 -2.13206,8.52047 -2.13359,8.53357 -10e-4,0.0131 3.21435,0.0239 7.14643,0.0239 h 7.14921 l 0.0665,-0.26221 c 0.0366,-0.14421 0.99476,-3.97359 2.12924,-8.50973 l 2.0627,-8.24752 10.16222,-0.0476 10.16221,-0.0476 -4.3821,-5.3871 c -2.41017,-2.96292 -4.46802,-5.50512 -4.57302,-5.64931 l -0.1909,-0.26222 h 4.20067 4.20068 l 4.96581,5.67316 4.96582,5.67315 h 9.18764 9.18764 l 4.96583,-5.67315 4.96581,-5.67316 h 4.20067 4.20068 l -0.19089,0.26222 c -0.10497,0.14419 -2.16288,2.68639 -4.57303,5.64931 l -4.38209,5.3871 10.16221,0.0476 10.16222,0.0476 2.0627,8.24752 c 1.13448,4.53614 2.09264,8.36552 2.12924,8.50973 l 0.0665,0.26221 h 7.14922 c 3.93208,0 7.14796,-0.0102 7.14643,-0.0239 -0.001,-0.0131 -0.96166,-3.85321 -2.1336,-8.53357 l -2.1308,-8.50972 h 4.21931 4.21932 l 3.90928,15.63692 3.90929,15.63693 h -11.37052 -11.3705 l 1.41586,5.64932 c 0.77872,3.10712 1.41709,5.65985 1.41859,5.67274 10e-4,0.0128 -4.76399,0.0343 -10.59,0.0476 l -10.59273,0.0242 7.4469,8.50973 7.4469,8.50973 -6.46038,-0.006 -6.46039,-0.006 -6.91266,-8.52635 -6.91267,-8.52632 h -16.30431 -16.30435 l -6.91268,8.52632 -6.91266,8.52635 -6.46038,0.006 -6.46038,0.006 z m 19.2992,-35.54063 v -7.10336 h -7.15103 -7.15104 l -0.0247,7.00801 c -0.0135,3.85441 -0.004,7.06192 0.021,7.1278 0.0363,0.095 1.52225,0.11474 7.17569,0.0953 l 7.12996,-0.0244 z m 46.91078,0 v -7.10336 l -7.1272,-0.0245 -7.1272,-0.0245 v 7.15224 7.15225 l 7.1272,-0.0245 7.1272,-0.0245 z"/><text style="font-style:normal;font-variant:normal;font-weight:400;font-stretch:normal;font-size:61.06628418px;line-height:1.25;font-family:Plaza;-inkscape-font-specification:Plaza;letter-spacing:0;word-spacing:0;fill:#eee;fill-opacity:.87843137;stroke:none;stroke-width:1.5266571" id="text4540-9-6" x="292.42" y="473.4" xml:space="preserve"><tspan id="tspan4538-9-5" x="292.42" y="473.4" style="font-size:48.85302734px;fill:#eee;fill-opacity:.87843137;stroke-width:1.5266571">retroarcH<tspan style="fill:red" id="tspan843">64</tspan></tspan></text></g></g></svg>