<?xml version="1.0" encoding="UTF-8" standalone="no"?>
<!-- Created with Inkscape (http://www.inkscape.org/) -->

<svg
   xmlns:dc="http://purl.org/dc/elements/1.1/"
   xmlns:cc="http://creativecommons.org/ns#"
   xmlns:rdf="http://www.w3.org/1999/02/22-rdf-syntax-ns#"
   xmlns:svg="http://www.w3.org/2000/svg"
   xmlns="http://www.w3.org/2000/svg"
   xmlns:sodipodi="http://sodipodi.sourceforge.net/DTD/sodipodi-0.dtd"
   xmlns:inkscape="http://www.inkscape.org/namespaces/inkscape"
   width="128.19"
   height="128.19"
   id="svg2"
   version="1.1"
   inkscape:version="0.92.2 (5c3e80d, 2017-08-06)"
   sodipodi:docname="invader.svg">
  <defs
     id="defs4" />
  <sodipodi:namedview
     id="base"
     pagecolor="#ffffff"
     bordercolor="#666666"
     borderopacity="1.0"
     inkscape:pageopacity="0.0"
     inkscape:pageshadow="2"
     inkscape:zoom="3.959798"
     inkscape:cx="31.999361"
     inkscape:cy="235.98077"
     inkscape:document-units="px"
     inkscape:current-layer="layer1"
     showgrid="true"
     showguides="true"
     inkscape:window-width="3840"
     inkscape:window-height="2137"
     inkscape:window-x="-8"
     inkscape:window-y="-8"
     inkscape:window-maximized="1"
     fit-margin-top="0"
     fit-margin-left="0"
     fit-margin-right="0"
     fit-margin-bottom="0">
    <inkscape:grid
       type="xygrid"
       id="grid2985"
       empspacing="5"
       visible="true"
       enabled="true"
       snapvisiblegridlinesonly="true"
       originx="-635.53125"
       originy="-706.75561"
       spacingx="1"
       spacingy="1" />
  </sodipodi:namedview>
  <metadata
     id="metadata7">
    <rdf:RDF>
      <cc:Work
         rdf:about="">
        <dc:format>image/svg+xml</dc:format>
        <dc:type
           rdf:resource="http://purl.org/dc/dcmitype/StillImage" />
        <dc:title />
      </cc:Work>
    </rdf:RDF>
  </metadata>
  <g
     inkscape:label="Layer 1"
     inkscape:groupmode="layer"
     id="layer1"
     transform="translate(-317.03125,-547.56)">
    <text
       xml:space="preserve"
       style="font-style:normal;font-variant:normal;font-weight:normal;font-stretch:normal;font-size:32px;line-height:1.25;font-family:Plaza;-inkscape-font-specification:Plaza;letter-spacing:0px;word-spacing:0px;fill:#000000;fill-opacity:1;stroke:none;"
       x="326.5"
       y="657.50562"
       id="text4536"><tspan
         sodipodi:role="line"
         id="tspan4534"
         x="326.5"
         y="701.487" /></text>
    <rect
       style="fill:#000000;fill-opacity:1;stroke:#987884;stroke-width:0;stroke-miterlimit:4;stroke-dasharray:none;stroke-opacity:0.2713568"
       id="rect4542"
       width="260"
       height="145"
       x="6.9454598"
       y="347.50562"
       inkscape:export-filename="C:\Users\Andres\Desktop\text4540.png"
       inkscape:export-xdpi="357.51724"
       inkscape:export-ydpi="357.51724" />
    <path
       style="fill:#eeeeee;fill-opacity:0.87843137;stroke:#d90000;stroke-width:0;stroke-miterlimit:4;stroke-dasharray:none;stroke-opacity:1"
       d="m 105.63774,424.46874 6.54837,-7.48297 -9.31465,-0.0213 c -5.12305,-0.0117 -9.31356,-0.0306 -9.31223,-0.0419 0.001,-0.0113 0.56267,-2.25606 1.24743,-4.98828 l 1.24503,-4.96769 h -9.99858 -9.99857 l 3.4376,-13.75022 3.43759,-13.75021 h 3.71024 3.71023 l -1.87372,7.48296 c -1.03054,4.11564 -1.87481,7.49241 -1.87616,7.50393 -10e-4,0.0115 2.82652,0.021 6.28416,0.021 h 6.28661 l 0.0585,-0.23057 c 0.0322,-0.12681 0.87473,-3.49415 1.87233,-7.48297 l 1.81382,-7.2524 8.93607,-0.0419 8.93607,-0.0419 -3.85337,-4.73711 c -2.11936,-2.60542 -3.92892,-4.84088 -4.02125,-4.96769 l -0.16787,-0.23057 h 3.69383 3.69384 l 4.36665,4.98865 4.36666,4.98865 h 8.07908 8.07909 l 4.36666,-4.98865 4.36665,-4.98865 h 3.69383 3.69384 l -0.16786,0.23057 c -0.0923,0.12681 -1.90191,2.36227 -4.02126,4.96769 l -3.85336,4.73711 8.93607,0.0419 8.93607,0.0419 1.81382,7.2524 c 0.9976,3.98882 1.84015,7.35616 1.87233,7.48297 l 0.0585,0.23057 h 6.28661 c 3.45765,0 6.28551,-0.009 6.28416,-0.021 -0.001,-0.0115 -0.84563,-3.38829 -1.87616,-7.50393 l -1.87371,-7.48296 h 3.71022 3.71023 l 3.4376,13.75021 3.4376,13.75022 h -9.99858 -9.99857 l 1.24503,4.96769 c 0.68476,2.73222 1.24611,4.97695 1.24743,4.98828 0.001,0.0113 -4.18918,0.0302 -9.31224,0.0419 l -9.31464,0.0213 6.54837,7.48297 6.54838,7.48297 -5.68089,-0.005 -5.68089,-0.005 -6.0786,-7.49758 -6.07861,-7.49757 h -14.33712 -14.33711 l -6.07861,7.49757 -6.0786,7.49758 -5.68089,0.005 -5.68089,0.005 z m 16.97061,-31.2524 v -6.24628 h -6.28821 -6.28821 l -0.0217,6.16244 c -0.0119,3.38935 -0.004,6.20985 0.0185,6.26778 0.0319,0.0835 1.33858,0.10089 6.30989,0.0838 l 6.26968,-0.0215 z m 41.25065,0 v -6.24628 l -6.26725,-0.0215 -6.26725,-0.0215 v 6.28927 6.28928 l 6.26725,-0.0215 6.26725,-0.0215 z"
       id="path30"
       inkscape:connector-curvature="0"
       inkscape:export-filename="C:\Users\Andres\Desktop\text4540.png"
       inkscape:export-xdpi="357.51724"
       inkscape:export-ydpi="357.51724" />
    <text
       xml:space="preserve"
       style="font-style:normal;font-variant:normal;font-weight:normal;font-stretch:normal;font-size:53.6981926px;line-height:1.25;font-family:Plaza;-inkscape-font-specification:Plaza;letter-spacing:0px;word-spacing:0px;fill:#eeeeee;fill-opacity:0.87843137;stroke:none;stroke-width:1.34245479"
       x="50.76091"
       y="469.30716"
       id="text4540"
       inkscape:export-filename="C:\Users\Andres\Desktop\text4540.png"
       inkscape:export-xdpi="357.51724"
       inkscape:export-ydpi="357.51724"><tspan
         sodipodi:role="line"
         id="tspan4538"
         x="50.76091"
         y="469.30716"
         style="font-size:42.95855331px;fill:#eeeeee;fill-opacity:0.87843137;stroke-width:1.34245479">retroarcH</tspan></text>
    <rect
       style="fill:#000000;fill-opacity:1;stroke:#987884;stroke-width:0;stroke-miterlimit:4;stroke-dasharray:none;stroke-opacity:0.2713568"
       id="rect4542-1"
       width="260"
       height="145"
       x="6.9454598"
       y="513.04462"
       inkscape:export-filename="C:\Users\Andres\Desktop\text4542.png"
       inkscape:export-xdpi="357.51724"
       inkscape:export-ydpi="357.51724" />
    <path
       style="fill:#eeeeee;fill-opacity:0.87843137;stroke:#d90000;stroke-width:0;stroke-miterlimit:4;stroke-dasharray:none;stroke-opacity:1"
       d="m 105.63774,590.00775 6.54837,-7.48297 -9.31465,-0.0213 c -5.12305,-0.0117 -9.31356,-0.0306 -9.31223,-0.0419 0.001,-0.0113 0.56267,-2.25606 1.24743,-4.98828 l 1.24503,-4.96769 h -9.99858 -9.99857 l 3.4376,-13.75022 3.43759,-13.75021 h 3.71024 3.71023 l -1.87372,7.48296 c -1.03054,4.11564 -1.87481,7.49241 -1.87616,7.50393 -10e-4,0.0115 2.82652,0.021 6.28416,0.021 h 6.28661 l 0.0585,-0.23057 c 0.0322,-0.12681 0.87473,-3.49415 1.87233,-7.48297 l 1.81382,-7.2524 8.93607,-0.0419 8.93607,-0.0419 -3.85337,-4.73711 c -2.11936,-2.60542 -3.92892,-4.84088 -4.02125,-4.96768 l -0.16787,-0.23058 h 3.69383 3.69384 l 4.36665,4.98865 4.36666,4.98865 h 8.07908 8.07909 l 4.36666,-4.98865 4.36665,-4.98865 h 3.69383 3.69384 l -0.16786,0.23058 c -0.0923,0.1268 -1.90191,2.36226 -4.02126,4.96768 l -3.85336,4.73711 8.93607,0.0419 8.93607,0.0419 1.81382,7.2524 c 0.9976,3.98882 1.84015,7.35616 1.87233,7.48297 l 0.0585,0.23057 h 6.28661 c 3.45765,0 6.28551,-0.009 6.28416,-0.021 -0.001,-0.0115 -0.84563,-3.38829 -1.87616,-7.50393 l -1.87371,-7.48296 h 3.71022 3.71023 l 3.4376,13.75021 3.4376,13.75022 h -9.99858 -9.99857 l 1.24503,4.96769 c 0.68476,2.73222 1.24611,4.97695 1.24743,4.98828 0.001,0.0113 -4.18918,0.0302 -9.31224,0.0419 l -9.31464,0.0213 6.54837,7.48297 6.54838,7.48297 -5.68089,-0.005 -5.68089,-0.005 -6.0786,-7.49758 -6.07861,-7.49756 h -14.33712 -14.33711 l -6.07861,7.49756 -6.0786,7.49758 -5.68089,0.005 -5.68089,0.005 z m 16.97061,-31.2524 v -6.24628 h -6.28821 -6.28821 l -0.0217,6.16244 c -0.0119,3.38935 -0.004,6.20985 0.0185,6.26778 0.0319,0.0835 1.33858,0.10089 6.30989,0.0838 l 6.26968,-0.0215 z m 41.25065,0 v -6.24628 l -6.26725,-0.0215 -6.26725,-0.0215 v 6.28927 6.28928 l 6.26725,-0.0215 6.26725,-0.0215 z"
       id="path30-6"
       inkscape:connector-curvature="0"
       inkscape:export-filename="C:\Users\Andres\Desktop\text4542.png"
       inkscape:export-xdpi="357.51724"
       inkscape:export-ydpi="357.51724" />
    <text
       xml:space="preserve"
       style="font-style:normal;font-variant:normal;font-weight:normal;font-stretch:normal;font-size:53.6981926px;line-height:1.25;font-family:Plaza;-inkscape-font-specification:Plaza;letter-spacing:0px;word-spacing:0px;fill:#eeeeee;fill-opacity:0.87843137;stroke:none;stroke-width:1.34245479"
       x="45.611893"
       y="634.84613"
       id="text4540-9"
       inkscape:export-filename="C:\Users\Andres\Desktop\text4540.png"
       inkscape:export-xdpi="357.51724"
       inkscape:export-ydpi="357.51724"><tspan
         sodipodi:role="line"
         id="tspan4538-9"
         x="45.611893"
         y="634.84613"
         style="font-size:42.95855331px;fill:#eeeeee;fill-opacity:0.87843137;stroke-width:1.34245479">retroarcH</tspan></text>
    <text
       xml:space="preserve"
       style="font-style:normal;font-variant:normal;font-weight:normal;font-stretch:normal;font-size:13.36937714px;line-height:1.25;font-family:Plaza;-inkscape-font-specification:Plaza;letter-spacing:0px;word-spacing:0px;fill:#eeeeee;fill-opacity:0.87843137;stroke:none;stroke-width:0.33423442"
       x="602.6073"
       y="-219.22505"
       id="text4540-9-2"
       inkscape:export-filename="C:\Users\Andres\Desktop\text4540.png"
       inkscape:export-xdpi="357.51724"
       inkscape:export-ydpi="357.51724"
       transform="rotate(90)"><tspan
         sodipodi:role="line"
         id="tspan4538-9-2"
         x="602.6073"
         y="-219.22505"
         style="font-size:10.69550133px;fill:#eeeeee;fill-opacity:0.87843137;stroke-width:0.33423442">AARCH64</tspan></text>
  </g>
</svg>
