<?xml version="1.0" encoding="UTF-8" standalone="no"?>
<svg id="svg8" height="48" version="1.1" viewbox="0 0 48 48" width="48"
     xmlns="http://www.w3.org/2000/svg" xmlns:svg="http://www.w3.org/2000/svg">
 <defs id="defs3">
  <linearGradient id="color-1" gradientUnits="userSpaceOnUse"
                  x1="6.92643" x2="94.20815" y1="15.24287" y2="85.8918">
   <stop id="stop1" offset="0" stop-opacity="0.1" />
   <stop id="stop2" offset="1" stop-opacity="0" />
  </linearGradient>
 </defs>
 <path id="base1" fill="#333"
   d="M 7,43
      C 5.8954,43 5,42.1046 5,41
      V 7
      C 5,5.8954 5.8954,5 7,5
      h 34
      c 1.1046,0 2,0.8954 2,2
      v 34
      c 0,1.1046 -0.8954,2 -2,2 z" />
 <path id="path3" fill="url(#color-1)"
   d="m 6.9264,25.7514
      c 0.6426,-2.5703 1.2852,-5.1407 1.9278,-7.711
      c 0.7061,0.0431 1.4834,-0.0861 2.145,0.0644
      c 0.9188,0.9188 1.8376,1.8376 2.7564,2.7564
      c 0.2342,-0.9363 0.4684,-1.8727 0.7026,-2.809
      c 1.6704,-0.0078 3.3408,-0.0157 5.0113,-0.0235
      c -0.7513,-0.9289 -1.5145,-1.8485 -2.2551,-2.7858
      c 0.7028,0.0436 1.4776,-0.0868 2.1358,0.0644
      c 0.9111,0.9111 1.8222,1.8222 2.7332,2.7332
      c 1.394,0 2.7879,0 4.1819,0
      c 0.8163,-0.9325 1.6325,-1.8651 2.4488,-2.7976
      c 0.7028,0.0436 1.4776,-0.0868 2.1358,0.0644
      c 2.313,2.313 4.626,4.626 6.9389,6.9389
      c 0.6275,-0.3576 -0.3103,-1.9227 -0.3753,-2.814
      c 0.0297,-0.4211 -0.648,-1.3944 -0.0754,-1.3917
      c 0.615,0.043 1.3014,-0.086 1.872,0.0644
      c 1.2633,1.2633 2.5266,2.5266 3.7899,3.7899
      c -0.0069,6.4365 0.0138,12.8737 -0.0103,19.3098
      c -0.0892,1.3012 -1.4483,1.9788 -2.6269,1.7955
      c -5.5782,0 -11.1564,0 -16.7347,0
      C 20.2138,39.5857 16.7995,36.1714 13.3852,32.7571
      C 13.9835,32.3324 12.9494,31.9621 12.7393,31.5643
      C 10.8017,29.6267 8.864,27.689 6.9264,25.7514 Z" />
 <path id="path4" fill="#fff" stroke="#d90000" stroke-width="0"
   d="m 15.2214,30.659
      c 0.612,-0.6994 1.2241,-1.3988 1.8361,-2.0982
      c -1.741,-0.0055 -3.482,-0.0038 -5.2229,-0.0178
      c 0.2318,-0.9308 0.4659,-1.8611 0.6989,-2.7916
      c -1.869,0 -3.7381,0 -5.6071,0
      c 0.6426,-2.5703 1.2852,-5.1407 1.9278,-7.711
      c 0.6936,0 1.3871,0 2.0807,0
      c -0.3505,1.4007 -0.702,2.8012 -1.0514,4.2023
      c 1.1749,0.0101 2.3499,0.0044 3.5248,0.0059
      c 0.3507,-1.3987 0.7,-2.7976 1.05,-4.1964
      c 1.6704,-0.0078 3.3408,-0.0157 5.0113,-0.0235
      c -0.7515,-0.9287 -1.5139,-1.849 -2.2551,-2.7858
      c 0.6987,0.0382 1.4669,-0.0766 2.122,0.0578
      c 0.7994,0.9133 1.5988,1.8266 2.3982,2.7398
      c 1.5102,0 3.0204,0 4.5307,0
      c 0.8163,-0.9325 1.6325,-1.8651 2.4488,-2.7976
      c 0.6905,0 1.381,0 2.0715,0
      c -0.741,0.937 -1.5037,1.857 -2.2551,2.7858
      c 1.6704,0.0078 3.3408,0.0157 5.0113,0.0235
      c 0.35,1.3988 0.6993,2.7978 1.05,4.1964
      c 1.1749,-0.0016 2.3499,0.0043 3.5248,-0.0059
      c -0.3494,-1.4010 -0.7009,-2.8015 -1.0514,-4.2023
      c 0.6936,0 1.3871,0 2.0807,0
      c 0.6426,2.5703 1.2852,5.1407 1.9278,7.711
      c -1.869,0 -3.7381,0 -5.6071,0
      c 0.233,0.9305 0.467,1.861 0.6989,2.7916
      c -1.7409,0.0141 -3.4819,0.0122 -5.2229,0.0178
      c 1.2241,1.3988 2.4482,2.7976 3.6723,4.1964
      c -1.0619,-0.0009 -2.1239,-0.0019 -3.1858,-0.0028
      c -1.1363,-1.4015 -2.2726,-2.803 -3.4088,-4.2046
      c -2.68,0 -5.3601,0 -8.0401,0
      c -1.1363,1.4015 -2.2726,2.803 -3.4089,4.2046
      c -1.0619,-0.0009 -2.1239,0.0019 -3.1858,0.0028
      c 0.612,-0.6994 1.2241,-1.3988 1.8362,-2.0982 z
      m 4.7585,-8.763
      c 0,-0.5838 0,-1.1676 0,-1.7514
      c -1.1754,0 -2.3509,0 -3.5264,0
      c -0.0012,1.1618 -0.0162,2.3237 -0.0009,3.4854
      c 1.1734,0.0524 2.3517,0.011 3.5273,0.0175
      c 0,-0.5838 0,-1.1676 0,-1.7514 z
      m 11.5665,-1.7514
      c -1.1715,-0.004 -2.3431,-0.008 -3.5146,-0.0121
      c 0,1.1756 0,2.3513 0,3.527
      c 1.1715,-0.004 2.3431,-0.008 3.5146,-0.0121
      c 0,-1.1676 0,-2.3352 0,-3.5028 z" />
</svg>
