<svg xmlns="http://www.w3.org/2000/svg" xmlns:svg="http://www.w3.org/2000/svg" id="svg48" width="16" height="16" version="1.1"><metadata id="metadata52"/><defs id="defs25"><linearGradient id="color-1" x1="6.926" x2="94.208" y1="15.243" y2="85.892" gradientUnits="userSpaceOnUse"><stop id="stop2" offset="0" stop-color="#000" stop-opacity=".1"/><stop id="stop4" offset="1" stop-color="#000" stop-opacity="0"/></linearGradient><filter id="dropshadow-base"><feColorMatrix id="feColorMatrix7" type="matrix" values="0 0 0 0 0 0 0 0 0 0 0 0 0 0 0 0 0 0 .8 0"/><feOffset id="feOffset9" dx="0" dy="1"/><feGaussianBlur id="feGaussianBlur11" result="result1" stdDeviation="1"/><feComposite id="feComposite13" in="SourceGraphic" in2="result1"/></filter><filter id="dropshadow-banner" width="1.2" height="1.3" x="-.1" y="-.1"><feColorMatrix id="feColorMatrix16" type="matrix" values="0 0 0 0 0 0 0 0 0 0 0 0 0 0 0 0 0 0 .4 0"/><feOffset id="feOffset18" dx="0" dy="1"/><feGaussianBlur id="feGaussianBlur20" result="result1" stdDeviation=".5"/><feComposite id="feComposite22" in="SourceGraphic" in2="result1"/></filter></defs><path style="opacity:1;vector-effect:none;fill:#333;fill-opacity:1;fill-rule:nonzero;stroke:#d90000;stroke-width:0;stroke-linecap:butt;stroke-linejoin:miter;stroke-miterlimit:4;stroke-dasharray:none;stroke-dashoffset:0;stroke-opacity:1;paint-order:markers stroke fill" id="rect4807" d="m 2,1 h 11 v 1 h 1 v 12 h -1 v 1 H 2 V 14 H 1 V 2 h 1 z"/><path style="font-family:none;mix-blend-mode:normal;fill:maroon;fill-rule:nonzero;stroke:#d90000;stroke-width:0;stroke-linecap:butt;stroke-linejoin:miter;stroke-miterlimit:4;stroke-dasharray:none;stroke-dashoffset:0" id="path31" stroke-miterlimit="4" d="M 4.7920761,-17.99567 2.78725,-18.00227 3.0555133,-19.074124 H 0.9032069 l 0.3699922,-1.47997 0.369992,-1.479944 h 0.7986677 l -0.4036022,1.613049 1.3530015,0.0023 0.00628,-0.0248 0.3967569,-1.585861 1.9235911,-0.0089 -0.8475508,-1.044612 -0.018068,-0.02482 h 0.7951405 l 0.9399715,1.073866 h 1.7391156 l 0.939971,-1.073881 h 0.7951401 l -0.01806,0.0248 -0.8475499,1.044537 1.9235929,0.0089 0.39674,1.585977 0.0062,0.0248 1.353005,-0.0023 -0.403537,-1.612959 h 0.798664 l 0.370036,1.479878 0.369993,1.479943 h -2.152299 l 0.268268,1.071569 -2.004822,0.0066 1.409582,1.610786 -1.222884,-9.78e-4 L 9,-18 H 5.913827 l -1.3084896,1.614011 -1.2228755,0.0012 z m 1.1217565,-3.230612 H 4.5602248 l -3.384e-4,1.337873 1.3539496,0.0066 z m 4.4398384,0 -1.3490992,-0.0047 v 1.353839 l 1.3490992,-0.0047 z"/><path style="font-family:none;mix-blend-mode:normal;fill:none;fill-rule:nonzero;stroke:none;stroke-width:1;stroke-linecap:butt;stroke-linejoin:miter;stroke-miterlimit:10;stroke-dasharray:none;stroke-dashoffset:0" id="base 1 1 1" stroke-miterlimit="10" d="m 2,-8 c 0,-12.15026 9.84974,-22 22,-22 12.15026,0 22,9.84974 22,22 C 46,4.15026 36.15026,14 24,14 11.84974,14 2,4.15026 2,-8 Z"/><rect style="font-family:none;mix-blend-mode:normal;fill:none;fill-rule:nonzero;stroke:none;stroke-width:1;stroke-linecap:butt;stroke-linejoin:miter;stroke-miterlimit:10;stroke-dasharray:none;stroke-dashoffset:0" id="rect36" width="44" height="22" x="2" y="-30" stroke-miterlimit="10"/><path style="font-family:none;mix-blend-mode:normal;fill:none;fill-rule:nonzero;stroke:none;stroke-width:1;stroke-linecap:butt;stroke-linejoin:miter;stroke-miterlimit:10;stroke-dasharray:none;stroke-dashoffset:0" id="path38" stroke-miterlimit="10" d="M 2,-8 V -30 H 46 V -8 Z"/><path style="font-family:none;mix-blend-mode:normal;fill:none;fill-rule:nonzero;stroke:none;stroke-width:1;stroke-linecap:butt;stroke-linejoin:miter;stroke-miterlimit:10;stroke-dasharray:none;stroke-dashoffset:0" id="path40" stroke-miterlimit="10" d="M 2,-8 V -30 H 46 V -8 Z"/><path style="font-family:none;mix-blend-mode:normal;fill:none;fill-rule:nonzero;stroke:none;stroke-width:1;stroke-linecap:butt;stroke-linejoin:miter;stroke-miterlimit:10;stroke-dasharray:none;stroke-dashoffset:0" id="path42" stroke-miterlimit="10" d="M 2,-8 V -30 H 46 V -8 Z"/><path style="font-family:none;mix-blend-mode:normal;fill:none;fill-rule:nonzero;stroke:none;stroke-width:1;stroke-linecap:butt;stroke-linejoin:miter;stroke-miterlimit:10;stroke-dasharray:none;stroke-dashoffset:0" id="path44" stroke-miterlimit="10" d="M 2,-8 V -30 H 46 V -8 Z"/><path style="font-family:none;mix-blend-mode:normal;fill:#f2f2f2;fill-opacity:1;fill-rule:nonzero;stroke:#d90000;stroke-width:0;stroke-linecap:butt;stroke-linejoin:miter;stroke-miterlimit:4;stroke-dasharray:none;stroke-dashoffset:0" id="path4626" d="M 11,4 V 5 H 10 V 4 Z m -1,1 v 1 h 1 v 1 h 1 V 5 h 1 v 2 2 h -1 v 1 h -1 v 1 H 10 V 10 H 9 6 5 v 1 H 4 V 10 H 3 V 9 H 2 V 7 5 H 3 V 7 H 4 V 6 H 5 V 5 H 6 V 6 H 9 V 5 Z M 5,5 H 4 V 4 h 1 z m -1,6 v 1 H 3 v -1 z m 7,0 h 1 v 1 H 11 Z M 10,7 H 9 v 1 h 1 z M 6,7 H 5 v 1 h 1 z"/><path id="path4715" stroke-miterlimit="4" d="m 2.873423,-9.0023 0.5035225,-2.01354 0.5035225,-2.01354 3.662647,-5.5e-5 3.662647,-5.5e-5 0.503534,2.013454 0.503535,2.013454 -4.6697035,1.41e-4 z" style="font-family:none;mix-blend-mode:normal;fill:#bc5fd3;fill-rule:nonzero;stroke:#d90000;stroke-width:0;stroke-linecap:butt;stroke-linejoin:miter;stroke-miterlimit:4;stroke-dasharray:none;stroke-dashoffset:0"/><path id="path4717" stroke-miterlimit="4" d="M 4.8782491,-8.9957 6,-9 l -1.3084896,1.614011 -1.2228755,0.0012 z" style="font-family:none;mix-blend-mode:normal;fill:#ff2ad4;fill-rule:nonzero;stroke:#d90000;stroke-width:0;stroke-linecap:butt;stroke-linejoin:miter;stroke-miterlimit:4;stroke-dasharray:none;stroke-dashoffset:0"/><path style="font-family:none;mix-blend-mode:normal;fill:#ff2ad4;fill-rule:nonzero;stroke:#d90000;stroke-width:0;stroke-linecap:butt;stroke-linejoin:miter;stroke-miterlimit:4;stroke-dasharray:none;stroke-dashoffset:0" id="path4719" stroke-miterlimit="4" d="m 10.20801,-8.995982 -1.1217508,-0.0043 1.3084898,1.614011 1.222874,0.0012 z"/><path id="path4721" stroke-miterlimit="4" d="m 5.8040591,-13.03828 -0.8475508,-1.044612 -0.018068,-0.02482 h 0.7951405 l 0.9399715,1.073866 z" style="font-family:none;mix-blend-mode:normal;fill:#f0f;fill-rule:nonzero;stroke:#d90000;stroke-width:0;stroke-linecap:butt;stroke-linejoin:miter;stroke-miterlimit:4;stroke-dasharray:none;stroke-dashoffset:0"/><path style="font-family:none;mix-blend-mode:normal;fill:#f0f;fill-rule:nonzero;stroke:#d90000;stroke-width:0;stroke-linecap:butt;stroke-linejoin:miter;stroke-miterlimit:4;stroke-dasharray:none;stroke-dashoffset:0" id="path4723" stroke-miterlimit="4" d="m 9.2821602,-13.038295 0.8475508,-1.044612 0.01807,-0.02482 H 9.3526392 l -0.9399718,1.073866 z"/><path id="path4725" stroke-miterlimit="4" d="m 11.608701,-11.418713 1.353005,-0.0023 -0.403537,-1.612959 h 0.798664 l 0.370036,1.479878 0.369993,1.479943 h -2.152299 z" style="font-family:none;mix-blend-mode:normal;fill:purple;fill-rule:nonzero;stroke:#d90000;stroke-width:0;stroke-linecap:butt;stroke-linejoin:miter;stroke-miterlimit:4;stroke-dasharray:none;stroke-dashoffset:0"/><path style="font-family:none;mix-blend-mode:normal;fill:purple;fill-rule:nonzero;stroke:#d90000;stroke-width:0;stroke-linecap:butt;stroke-linejoin:miter;stroke-miterlimit:4;stroke-dasharray:none;stroke-dashoffset:0" id="path4727" stroke-miterlimit="4" d="m 3.4774346,-11.418719 -1.353005,-0.0023 0.403537,-1.612959 h -0.798664 l -0.370036,1.479878 -0.369993,1.479943 h 2.152299 z"/><rect id="rect4729" width="1.354" height="1.344" x="4.646" y="-12.226" style="font-family:none;opacity:1;mix-blend-mode:normal;vector-effect:none;fill:#800066;fill-opacity:1;fill-rule:nonzero;stroke:none;stroke-width:2;stroke-linecap:butt;stroke-linejoin:miter;stroke-miterlimit:4;stroke-dasharray:none;stroke-dashoffset:0;stroke-opacity:1;paint-order:markers stroke fill"/><rect style="font-family:none;opacity:1;mix-blend-mode:normal;vector-effect:none;fill:#800066;fill-opacity:1;fill-rule:nonzero;stroke:none;stroke-width:2;stroke-linecap:butt;stroke-linejoin:miter;stroke-miterlimit:4;stroke-dasharray:none;stroke-dashoffset:0;stroke-opacity:1;paint-order:markers stroke fill" id="rect4731" width="1.354" height="1.344" x="9.086" y="-12.226"/></svg>