<?xml version="1.0" encoding="UTF-8" standalone="no"?>
<svg
   xmlns:dc="http://purl.org/dc/elements/1.1/"
   xmlns:cc="http://creativecommons.org/ns#"
   xmlns:rdf="http://www.w3.org/1999/02/22-rdf-syntax-ns#"
   xmlns:svg="http://www.w3.org/2000/svg"
   xmlns="http://www.w3.org/2000/svg"
   xmlns:sodipodi="http://sodipodi.sourceforge.net/DTD/sodipodi-0.dtd"
   xmlns:inkscape="http://www.inkscape.org/namespaces/inkscape"
   version="1.1"
   width="16"
   height="16"
   id="svg48"
   sodipodi:docname="icon16.svg"
   inkscape:export-filename="C:\msys64\home\Alfre\retroarch\media\ico_src\icon16.png"
   inkscape:export-xdpi="96"
   inkscape:export-ydpi="96"
   inkscape:version="0.92.3 (2405546, 2018-03-11)">
  <metadata
     id="metadata52">
    <rdf:RDF>
      <cc:Work
         rdf:about="">
        <dc:format>image/svg+xml</dc:format>
        <dc:type
           rdf:resource="http://purl.org/dc/dcmitype/StillImage" />
        <dc:title />
      </cc:Work>
    </rdf:RDF>
  </metadata>
  <sodipodi:namedview
     pagecolor="#ffffff"
     bordercolor="#666666"
     borderopacity="1"
     objecttolerance="10"
     gridtolerance="10"
     guidetolerance="10"
     inkscape:pageopacity="0"
     inkscape:pageshadow="2"
     inkscape:window-width="1920"
     inkscape:window-height="1001"
     id="namedview50"
     showgrid="true"
     inkscape:zoom="32"
     inkscape:cx="13.029775"
     inkscape:cy="8.1384762"
     inkscape:window-x="-9"
     inkscape:window-y="-9"
     inkscape:window-maximized="1"
     inkscape:current-layer="svg48"
     showguides="true"
     inkscape:guide-bbox="true">
    <inkscape:grid
       type="xygrid"
       id="grid4596" />
  </sodipodi:namedview>
  <defs
     id="defs25">
    <linearGradient
       x1="6.9264302"
       y1="15.24287"
       x2="94.208153"
       y2="85.8918"
       gradientUnits="userSpaceOnUse"
       id="color-1">
      <stop
         offset="0"
         stop-color="#000000"
         stop-opacity="0.1"
         id="stop2" />
      <stop
         offset="1"
         stop-color="#000000"
         stop-opacity="0"
         id="stop4" />
    </linearGradient>
    <filter
       id="dropshadow-base">
      <feColorMatrix
         type="matrix"
         values="0 0 0 0 0  0 0 0 0 0  0 0 0 0 0  0 0 0 .8 0"
         id="feColorMatrix7" />
      <feOffset
         dx="0"
         dy="1"
         id="feOffset9" />
      <feGaussianBlur
         stdDeviation="1"
         id="feGaussianBlur11"
         result="result1" />
      <feComposite
         in="SourceGraphic"
         in2="result1"
         id="feComposite13" />
    </filter>
    <filter
       id="dropshadow-banner"
       x="-0.1"
       y="-0.1"
       width="1.2"
       height="1.3">
      <feColorMatrix
         type="matrix"
         values="0 0 0 0 0  0 0 0 0 0  0 0 0 0 0  0 0 0 .4 0"
         id="feColorMatrix16" />
      <feOffset
         dx="0"
         dy="1"
         id="feOffset18" />
      <feGaussianBlur
         stdDeviation="0.5"
         id="feGaussianBlur20"
         result="result1" />
      <feComposite
         in="SourceGraphic"
         in2="result1"
         id="feComposite22" />
    </filter>
  </defs>
  <path
     style="opacity:1;vector-effect:none;fill:#333333;fill-opacity:1;fill-rule:nonzero;stroke:#d90000;stroke-width:0;stroke-linecap:butt;stroke-linejoin:miter;stroke-miterlimit:4;stroke-dasharray:none;stroke-dashoffset:0;stroke-opacity:1;paint-order:markers stroke fill"
     d="m 2,1 h 11 v 1 h 1 v 12 h -1 v 1 H 2 V 14 H 1 V 2 h 1 z"
     id="rect4807"
     inkscape:connector-curvature="0"
     sodipodi:nodetypes="ccccccccccccc" />
  <path
     sodipodi:nodetypes="ccccccccccccccccccccccccccccccccccccccccccccccccc"
     style="font-family:none;mix-blend-mode:normal;fill:#800000;fill-rule:nonzero;stroke:#d90000;stroke-width:0;stroke-linecap:butt;stroke-linejoin:miter;stroke-miterlimit:4;stroke-dasharray:none;stroke-dashoffset:0"
     inkscape:connector-curvature="0"
     inkscape:export-ydpi="40.421051"
     inkscape:export-xdpi="40.421051"
     stroke-miterlimit="4"
     id="path31"
     d="M 4.7920761,-17.99567 2.78725,-18.00227 3.0555133,-19.074124 H 0.9032069 l 0.3699922,-1.47997 0.369992,-1.479944 h 0.7986677 l -0.4036022,1.613049 1.3530015,0.0023 0.00628,-0.0248 0.3967569,-1.585861 1.9235911,-0.0089 -0.8475508,-1.044612 -0.018068,-0.02482 h 0.7951405 l 0.9399715,1.073866 h 1.7391156 l 0.939971,-1.073881 h 0.7951401 l -0.01806,0.0248 -0.8475499,1.044537 1.9235929,0.0089 0.39674,1.585977 0.0062,0.0248 1.353005,-0.0023 -0.403537,-1.612959 h 0.798664 l 0.370036,1.479878 0.369993,1.479943 h -2.152299 l 0.268268,1.071569 -2.004822,0.0066 1.409582,1.610786 -1.222884,-9.78e-4 L 9,-18 H 5.913827 l -1.3084896,1.614011 -1.2228755,0.0012 z m 1.1217565,-3.230612 H 4.5602248 l -3.384e-4,1.337873 1.3539496,0.0066 z m 4.4398384,0 -1.3490992,-0.0047 v 1.353839 l 1.3490992,-0.0047 z" />
  <path
     style="font-family:none;mix-blend-mode:normal;fill:none;fill-rule:nonzero;stroke:none;stroke-width:1;stroke-linecap:butt;stroke-linejoin:miter;stroke-miterlimit:10;stroke-dasharray:none;stroke-dashoffset:0"
     inkscape:connector-curvature="0"
     stroke-miterlimit="10"
     id="base 1 1 1"
     d="m 2,-8 c 0,-12.15026 9.84974,-22 22,-22 12.15026,0 22,9.84974 22,22 C 46,4.15026 36.15026,14 24,14 11.84974,14 2,4.15026 2,-8 Z" />
  <rect
     style="font-family:none;mix-blend-mode:normal;fill:none;fill-rule:nonzero;stroke:none;stroke-width:1;stroke-linecap:butt;stroke-linejoin:miter;stroke-miterlimit:10;stroke-dasharray:none;stroke-dashoffset:0"
     id="rect36"
     stroke-miterlimit="10"
     height="22"
     width="44"
     y="-30"
     x="2" />
  <path
     style="font-family:none;mix-blend-mode:normal;fill:none;fill-rule:nonzero;stroke:none;stroke-width:1;stroke-linecap:butt;stroke-linejoin:miter;stroke-miterlimit:10;stroke-dasharray:none;stroke-dashoffset:0"
     inkscape:connector-curvature="0"
     id="path38"
     stroke-miterlimit="10"
     d="M 2,-8 V -30 H 46 V -8 Z" />
  <path
     style="font-family:none;mix-blend-mode:normal;fill:none;fill-rule:nonzero;stroke:none;stroke-width:1;stroke-linecap:butt;stroke-linejoin:miter;stroke-miterlimit:10;stroke-dasharray:none;stroke-dashoffset:0"
     inkscape:connector-curvature="0"
     id="path40"
     stroke-miterlimit="10"
     d="M 2,-8 V -30 H 46 V -8 Z" />
  <path
     style="font-family:none;mix-blend-mode:normal;fill:none;fill-rule:nonzero;stroke:none;stroke-width:1;stroke-linecap:butt;stroke-linejoin:miter;stroke-miterlimit:10;stroke-dasharray:none;stroke-dashoffset:0"
     inkscape:connector-curvature="0"
     id="path42"
     stroke-miterlimit="10"
     d="M 2,-8 V -30 H 46 V -8 Z" />
  <path
     style="font-family:none;mix-blend-mode:normal;fill:none;fill-rule:nonzero;stroke:none;stroke-width:1;stroke-linecap:butt;stroke-linejoin:miter;stroke-miterlimit:10;stroke-dasharray:none;stroke-dashoffset:0"
     inkscape:connector-curvature="0"
     id="path44"
     stroke-miterlimit="10"
     d="M 2,-8 V -30 H 46 V -8 Z" />
  <path
     style="font-family:none;mix-blend-mode:normal;fill:#f2f2f2;fill-opacity:1;fill-rule:nonzero;stroke:#d90000;stroke-width:0;stroke-linecap:butt;stroke-linejoin:miter;stroke-miterlimit:4;stroke-dasharray:none;stroke-dashoffset:0"
     d="M 11,4 V 5 H 10 V 4 Z m -1,1 v 1 h 1 v 1 h 1 V 5 h 1 v 2 2 h -1 v 1 h -1 v 1 H 10 V 10 H 9 6 5 v 1 H 4 V 10 H 3 V 9 H 2 V 7 5 H 3 V 7 H 4 V 6 H 5 V 5 H 6 V 6 H 9 V 5 Z M 5,5 H 4 V 4 h 1 z m -1,6 v 1 H 3 v -1 z m 7,0 h 1 v 1 H 11 Z M 10,7 H 9 v 1 h 1 z M 6,7 H 5 v 1 h 1 z"
     id="path4626"
     inkscape:connector-curvature="0"
     sodipodi:nodetypes="ccccccccccccccccccccccccccccccccccccccccccccccccccccccccccccccccccc" />
  <path
     d="m 2.873423,-9.0023 0.5035225,-2.01354 0.5035225,-2.01354 3.662647,-5.5e-5 3.662647,-5.5e-5 0.503534,2.013454 0.503535,2.013454 -4.6697035,1.41e-4 z"
     id="path4715"
     stroke-miterlimit="4"
     inkscape:export-xdpi="40.421051"
     inkscape:export-ydpi="40.421051"
     inkscape:connector-curvature="0"
     style="font-family:none;mix-blend-mode:normal;fill:#bc5fd3;fill-rule:nonzero;stroke:#d90000;stroke-width:0;stroke-linecap:butt;stroke-linejoin:miter;stroke-miterlimit:4;stroke-dasharray:none;stroke-dashoffset:0"
     sodipodi:nodetypes="ccccccccc" />
  <path
     d="M 4.8782491,-8.9957 6,-9 l -1.3084896,1.614011 -1.2228755,0.0012 z"
     id="path4717"
     stroke-miterlimit="4"
     inkscape:export-xdpi="40.421051"
     inkscape:export-ydpi="40.421051"
     inkscape:connector-curvature="0"
     style="font-family:none;mix-blend-mode:normal;fill:#ff2ad4;fill-rule:nonzero;stroke:#d90000;stroke-width:0;stroke-linecap:butt;stroke-linejoin:miter;stroke-miterlimit:4;stroke-dasharray:none;stroke-dashoffset:0"
     sodipodi:nodetypes="ccccc" />
  <path
     sodipodi:nodetypes="ccccc"
     style="font-family:none;mix-blend-mode:normal;fill:#ff2ad4;fill-rule:nonzero;stroke:#d90000;stroke-width:0;stroke-linecap:butt;stroke-linejoin:miter;stroke-miterlimit:4;stroke-dasharray:none;stroke-dashoffset:0"
     inkscape:connector-curvature="0"
     inkscape:export-ydpi="40.421051"
     inkscape:export-xdpi="40.421051"
     stroke-miterlimit="4"
     id="path4719"
     d="m 10.20801,-8.995982 -1.1217508,-0.0043 1.3084898,1.614011 1.222874,0.0012 z" />
  <path
     d="m 5.8040591,-13.03828 -0.8475508,-1.044612 -0.018068,-0.02482 h 0.7951405 l 0.9399715,1.073866 z"
     id="path4721"
     stroke-miterlimit="4"
     inkscape:export-xdpi="40.421051"
     inkscape:export-ydpi="40.421051"
     inkscape:connector-curvature="0"
     style="font-family:none;mix-blend-mode:normal;fill:#ff00ff;fill-rule:nonzero;stroke:#d90000;stroke-width:0;stroke-linecap:butt;stroke-linejoin:miter;stroke-miterlimit:4;stroke-dasharray:none;stroke-dashoffset:0"
     sodipodi:nodetypes="cccccc" />
  <path
     sodipodi:nodetypes="cccccc"
     style="font-family:none;mix-blend-mode:normal;fill:#ff00ff;fill-rule:nonzero;stroke:#d90000;stroke-width:0;stroke-linecap:butt;stroke-linejoin:miter;stroke-miterlimit:4;stroke-dasharray:none;stroke-dashoffset:0"
     inkscape:connector-curvature="0"
     inkscape:export-ydpi="40.421051"
     inkscape:export-xdpi="40.421051"
     stroke-miterlimit="4"
     id="path4723"
     d="m 9.2821602,-13.038295 0.8475508,-1.044612 0.01807,-0.02482 H 9.3526392 l -0.9399718,1.073866 z" />
  <path
     d="m 11.608701,-11.418713 1.353005,-0.0023 -0.403537,-1.612959 h 0.798664 l 0.370036,1.479878 0.369993,1.479943 h -2.152299 z"
     id="path4725"
     stroke-miterlimit="4"
     inkscape:export-xdpi="40.421051"
     inkscape:export-ydpi="40.421051"
     inkscape:connector-curvature="0"
     style="font-family:none;mix-blend-mode:normal;fill:#800080;fill-rule:nonzero;stroke:#d90000;stroke-width:0;stroke-linecap:butt;stroke-linejoin:miter;stroke-miterlimit:4;stroke-dasharray:none;stroke-dashoffset:0"
     sodipodi:nodetypes="cccccccc" />
  <path
     sodipodi:nodetypes="cccccccc"
     style="font-family:none;mix-blend-mode:normal;fill:#800080;fill-rule:nonzero;stroke:#d90000;stroke-width:0;stroke-linecap:butt;stroke-linejoin:miter;stroke-miterlimit:4;stroke-dasharray:none;stroke-dashoffset:0"
     inkscape:connector-curvature="0"
     inkscape:export-ydpi="40.421051"
     inkscape:export-xdpi="40.421051"
     stroke-miterlimit="4"
     id="path4727"
     d="m 3.4774346,-11.418719 -1.353005,-0.0023 0.403537,-1.612959 h -0.798664 l -0.370036,1.479878 -0.369993,1.479943 h 2.152299 z" />
  <rect
     y="-12.226315"
     x="4.6463981"
     height="1.344473"
     width="1.3536112"
     id="rect4729"
     style="font-family:none;opacity:1;mix-blend-mode:normal;vector-effect:none;fill:#800066;fill-opacity:1;fill-rule:nonzero;stroke:none;stroke-width:2;stroke-linecap:butt;stroke-linejoin:miter;stroke-miterlimit:4;stroke-dasharray:none;stroke-dashoffset:0;stroke-opacity:1;paint-order:markers stroke fill" />
  <rect
     style="font-family:none;opacity:1;mix-blend-mode:normal;vector-effect:none;fill:#800066;fill-opacity:1;fill-rule:nonzero;stroke:none;stroke-width:2;stroke-linecap:butt;stroke-linejoin:miter;stroke-miterlimit:4;stroke-dasharray:none;stroke-dashoffset:0;stroke-opacity:1;paint-order:markers stroke fill"
     id="rect4731"
     width="1.3536112"
     height="1.344473"
     x="9.0862331"
     y="-12.226315" />
</svg>
